<svg xmlns="http://www.w3.org/2000/svg" viewBox="0 0 100 100" fill="none">
  <!-- Outer Ring with Zodiac/Constellation hints -->
  <circle cx="50" cy="50" r="45" stroke="#D4A574" stroke-width="2" fill="black" opacity="1" />
  <circle cx="50" cy="50" r="38" stroke="#D4A574" stroke-width="1" fill="none" opacity="0.6" />
  
  <!-- Twelve Zodiac Circles on the rim -->
  <g fill="#FFF5E6" stroke="#D4A574" stroke-width="1.5">
    <circle cx="50" cy="5" r="4" />
    <circle cx="72.5" cy="11" r="4" />
    <circle cx="89" cy="27.5" r="4" />
    <circle cx="95" cy="50" r="4" />
    <circle cx="89" cy="72.5" r="4" />
    <circle cx="72.5" cy="89" r="4" />
    <circle cx="50" cy="95" r="4" />
    <circle cx="27.5" cy="89" r="4" />
    <circle cx="11" cy="72.5" r="4" />
    <circle cx="5" cy="50" r="4" />
    <circle cx="11" cy="27.5" r="4" />
    <circle cx="27.5" cy="11" r="4" />
  </g>

  <!-- Central Star/Geometry (Hexagram) -->
  <path d="M50 15 L58 42 L85 50 L58 58 L50 85 L42 58 L15 50 L42 42 Z" fill="none" stroke="#D4A574" stroke-width="1" opacity="0.9" />
  <path d="M50 20 L76 65 L24 65 Z" stroke="#FFD700" stroke-width="1" fill="none" />
  <path d="M50 80 L24 35 L76 35 Z" stroke="#FFD700" stroke-width="1" fill="none" />

  <!-- India Map Silhouette (Simplified/Artistic) -->
  <path d="M50 35 L55 38 L58 45 L50 65 L42 45 L45 38 Z" fill="#D4A574" opacity="0.8" transform="scale(0.8) translate(12, 12)" />
  <!-- A more complex path mimicking India's shape -->
   <path d="M43 32 
           C45 30 50 28 53 30 
           L56 35 
           C58 38 60 40 58 45 
           L55 55 
           L52 65 
           L50 68 
           L48 65 
           L45 55 
           L42 45 
           C40 40 42 38 43 32 Z" 
           fill="#D4A574" stroke="none" opacity="0.9" />

</svg>
